<svg width="20" height="20" viewBox="0 0 20 20" fill="none" xmlns="http://www.w3.org/2000/svg">
<path d="M7.49998 17.5H15C15.6916 17.5 16.2833 17.0833 16.5333 16.4833L19.05 10.6083C19.125 10.4167 19.1666 10.2167 19.1666 10V8.33333C19.1666 7.41667 18.4166 6.66667 17.5 6.66667H12.2416L13.0333 2.85833L13.0583 2.59167C13.0583 2.25 12.9166 1.93333 12.6916 1.70833L11.8083 0.833332L6.31665 6.325C6.01665 6.625 5.83331 7.04167 5.83331 7.5V15.8333C5.83331 16.75 6.58331 17.5 7.49998 17.5ZM7.49998 7.5L11.1166 3.88333L9.99998 8.33333H17.5V10L15 15.8333H7.49998V7.5ZM0.833313 7.5H4.16665V17.5H0.833313V7.5Z" fill="#00B7C2"/>
</svg>
