<svg width="25" height="24" viewBox="0 0 25 24" fill="none" xmlns="http://www.w3.org/2000/svg">
<path d="M12.5 17.8333C16.4479 17.8333 19.9688 15.7625 21.6875 12.4861C19.9688 9.20968 16.4479 7.13885 12.5 7.13885C8.5521 7.13885 5.03127 9.20968 3.31252 12.4861C5.03127 15.7625 8.5521 17.8333 12.5 17.8333ZM12.5 19.7777C7.29169 19.7777 2.84377 16.7541 1.04169 12.4861C2.84377 8.21802 7.29169 5.1944 12.5 5.1944C17.7084 5.1944 22.1563 8.21802 23.9584 12.4861C22.1563 16.7541 17.7084 19.7777 12.5 19.7777ZM12.5 14.9166C13.9375 14.9166 15.1042 13.8277 15.1042 12.4861C15.1042 11.1444 13.9375 10.0555 12.5 10.0555C11.0625 10.0555 9.89585 11.1444 9.89585 12.4861C9.89585 13.8277 11.0625 14.9166 12.5 14.9166ZM12.5 16.8611C9.91669 16.8611 7.81252 14.8972 7.81252 12.4861C7.81252 10.075 9.91669 8.11107 12.5 8.11107C15.0834 8.11107 17.1875 10.075 17.1875 12.4861C17.1875 14.8972 15.0834 16.8611 12.5 16.8611Z" fill="#CE0000"/>
</svg>
